<?xml version="1.0" standalone="no"?>
<!DOCTYPE svg PUBLIC "-//W3C//DTD SVG 20010904//EN"
 "http://www.w3.org/TR/2001/REC-SVG-20010904/DTD/svg10.dtd">
<svg version="1.0" xmlns="http://www.w3.org/2000/svg"
 width="100.000000pt" height="100.000000pt" viewBox="0 0 100.000000 100.000000"
 preserveAspectRatio="xMidYMid meet">
<metadata>
Created by potrace 1.15, written by Peter Selinger 2001-2017
</metadata>
<g transform="translate(0.000000,100.000000) scale(0.100000,-0.100000)"
fill="#000000" stroke="none">
<path d="M397 910 c-92 -24 -191 -93 -247 -175 -79 -115 -92 -280 -33 -407 44
-93 109 -160 202 -206 72 -36 79 -37 181 -37 102 0 109 1 181 37 93 46 158
112 202 206 30 62 32 75 32 172 0 97 -2 110 -32 172 -44 93 -110 160 -199 204
-64 32 -84 37 -161 40 -48 2 -105 -1 -126 -6z m239 -114 c205 -94 254 -366 94
-526 -127 -127 -333 -127 -460 0 -127 127 -127 333 -1 459 99 99 241 125 367
67z"/>
<path d="M410 728 c-45 -31 -69 -66 -77 -111 l-6 -37 45 0 c41 0 46 3 61 35
28 58 103 61 132 4 21 -40 13 -64 -45 -124 -44 -45 -70 -88 -70 -116 0 -5 23
-9 50 -9 38 0 50 4 50 15 0 8 25 42 55 75 60 65 70 91 62 152 -11 83 -78 138
-167 138 -43 0 -65 -6 -90 -22z"/>
</g>
</svg>
