<?xml version="1.0" standalone="no"?>
<!DOCTYPE svg PUBLIC "-//W3C//DTD SVG 20010904//EN"
 "http://www.w3.org/TR/2001/REC-SVG-20010904/DTD/svg10.dtd">
<svg version="1.0" xmlns="http://www.w3.org/2000/svg"
 width="100.000000pt" height="100.000000pt" viewBox="0 0 100.000000 100.000000"
 preserveAspectRatio="xMidYMid meet">
<metadata>
Created by potrace 1.15, written by Peter Selinger 2001-2017
</metadata>
<g transform="translate(0.000000,100.000000) scale(0.100000,-0.100000)"
fill="#000000" stroke="none">
<path d="M345 953 c-124 -45 -215 -125 -273 -242 -36 -74 -37 -77 -37 -195 0
-115 2 -124 32 -189 36 -76 116 -166 181 -204 141 -83 333 -83 474 0 54 31
139 120 166 173 72 142 68 321 -11 456 -38 65 -128 145 -204 181 -61 28 -79
32 -173 34 -81 3 -116 -1 -155 -14z m318 -66 c91 -45 156 -112 200 -205 29
-61 32 -75 32 -167 0 -92 -3 -106 -32 -168 -42 -89 -121 -168 -210 -210 -63
-29 -76 -32 -169 -32 -95 0 -104 2 -175 37 -338 167 -309 642 46 767 48 17 78
21 147 18 76 -3 95 -8 161 -40z"/>
<path d="M397 869 c-100 -24 -198 -105 -243 -202 -25 -54 -29 -74 -29 -152 0
-82 3 -97 32 -156 39 -78 77 -119 95 -101 10 10 10 17 0 33 -11 17 -10 24 8
49 25 35 75 75 110 88 18 7 32 4 55 -9 39 -24 71 -24 117 1 l36 19 44 -23 c51
-27 114 -104 99 -119 -16 -16 -13 -47 3 -47 21 0 65 57 95 120 22 46 26 69 26
145 0 76 -4 99 -27 147 -28 60 -102 148 -124 148 -25 0 -15 -32 22 -73 86 -95
113 -235 66 -340 l-21 -48 -42 45 c-22 25 -58 53 -79 62 l-38 17 14 40 c19 53
18 121 -2 163 -47 100 -218 99 -260 -1 -17 -42 -18 -129 0 -170 12 -29 11 -30
-25 -48 -21 -10 -56 -38 -78 -62 -28 -30 -43 -40 -49 -32 -24 32 -37 88 -37
157 1 62 6 85 29 130 32 63 66 102 117 136 50 31 138 55 193 53 50 -3 61 2 53
26 -7 17 -94 20 -160 4z m152 -185 c58 -48 54 -144 -9 -206 -21 -21 -45 -38
-53 -38 -24 0 -78 50 -93 87 -8 18 -14 51 -14 74 0 33 6 47 34 75 43 43 90 46
135 8z"/>
</g>
</svg>
