<?xml version="1.0" standalone="no"?>
<!DOCTYPE svg PUBLIC "-//W3C//DTD SVG 20010904//EN"
 "http://www.w3.org/TR/2001/REC-SVG-20010904/DTD/svg10.dtd">
<svg version="1.0" xmlns="http://www.w3.org/2000/svg"
 width="100.000000pt" height="100.000000pt" viewBox="0 0 100.000000 100.000000"
 preserveAspectRatio="xMidYMid meet">
<metadata>
Created by potrace 1.15, written by Peter Selinger 2001-2017
</metadata>
<g transform="translate(0.000000,100.000000) scale(0.100000,-0.100000)"
fill="#000000" stroke="none">
<path d="M750 715 c0 -24 5 -35 15 -35 12 0 15 -14 15 -70 0 -56 -3 -70 -15
-70 -11 0 -15 -11 -15 -40 l0 -40 65 0 65 0 0 40 c0 29 -4 40 -15 40 -12 0
-15 18 -15 105 l0 105 -50 0 -50 0 0 -35z"/>
<path d="M325 706 c-42 -18 -92 -78 -105 -126 -16 -61 0 -130 41 -175 18 -20
18 -21 -28 -55 -55 -41 -100 -118 -109 -183 l-7 -47 35 0 c34 0 35 2 51 58 52
189 304 216 391 41 14 -29 26 -63 26 -76 0 -20 5 -23 35 -23 32 0 35 3 35 28
0 61 -32 126 -92 185 -32 31 -54 57 -49 57 15 0 151 131 151 145 0 21 -137
134 -195 161 -56 27 -132 31 -180 10z m138 -72 c18 -9 56 -35 85 -57 l53 -40
-32 -33 c-17 -18 -58 -47 -91 -64 -74 -40 -112 -36 -157 16 -88 99 23 238 142
178z"/>
</g>
</svg>
