<?xml version="1.0" standalone="no"?>
<!DOCTYPE svg PUBLIC "-//W3C//DTD SVG 20010904//EN"
 "http://www.w3.org/TR/2001/REC-SVG-20010904/DTD/svg10.dtd">
<svg version="1.0" xmlns="http://www.w3.org/2000/svg"
 width="100.000000pt" height="100.000000pt" viewBox="0 0 100.000000 100.000000"
 preserveAspectRatio="xMidYMid meet">
<metadata>
Created by potrace 1.15, written by Peter Selinger 2001-2017
</metadata>
<g transform="translate(0.000000,100.000000) scale(0.100000,-0.100000)"
fill="#000000" stroke="none">
<path d="M295 927 c-52 -21 -85 -48 -113 -96 -48 -81 -34 -196 32 -270 21 -23
21 -24 2 -35 -78 -46 -143 -141 -153 -226 l-6 -50 37 0 c31 0 36 3 36 23 0 35
44 119 81 154 19 18 51 39 73 48 44 19 128 22 168 6 l27 -10 -22 -48 c-33 -73
-30 -162 8 -232 48 -87 122 -131 222 -131 143 1 253 110 253 253 0 100 -44
174 -131 222 -69 37 -162 41 -226 9 -65 -32 -72 -12 -11 31 29 21 79 61 111
88 l58 50 -48 49 c-64 66 -162 136 -223 159 -56 21 -129 24 -175 6z m126 -69
c43 -14 157 -88 186 -119 l22 -25 -54 -42 c-152 -119 -250 -131 -318 -40 -35
46 -41 88 -22 134 20 48 42 73 80 90 38 17 63 17 106 2z m342 -382 c41 -16 81
-64 97 -112 44 -132 -92 -268 -224 -224 -81 26 -126 90 -126 177 0 125 134
209 253 159z"/>
<path d="M650 395 l0 -45 -45 0 c-45 0 -45 0 -45 -35 0 -35 0 -35 45 -35 l45
0 0 -50 0 -50 35 0 35 0 0 50 0 50 50 0 50 0 0 35 0 35 -50 0 -50 0 0 45 c0
45 0 45 -35 45 -35 0 -35 0 -35 -45z"/>
</g>
</svg>
