<?xml version="1.0" standalone="no"?>
<!DOCTYPE svg PUBLIC "-//W3C//DTD SVG 20010904//EN"
 "http://www.w3.org/TR/2001/REC-SVG-20010904/DTD/svg10.dtd">
<svg version="1.0" xmlns="http://www.w3.org/2000/svg"
 width="96.000000pt" height="96.000000pt" viewBox="0 0 96.000000 96.000000"
 preserveAspectRatio="xMidYMid meet">
<metadata>
Created by potrace 1.15, written by Peter Selinger 2001-2017
</metadata>
<g transform="translate(0.000000,96.000000) scale(0.100000,-0.100000)"
fill="#000000" stroke="none">
<path d="M351 854 c-98 -35 -179 -108 -227 -202 -27 -53 -29 -65 -29 -172 0
-107 2 -119 29 -172 38 -75 104 -141 180 -181 58 -31 66 -32 176 -32 110 0
118 1 175 32 77 40 138 101 178 178 31 57 32 65 32 175 0 110 -1 118 -32 176
-40 76 -106 142 -181 179 -49 25 -71 29 -157 32 -73 2 -112 -1 -144 -13z m259
-80 c73 -34 126 -86 161 -159 24 -50 29 -73 29 -135 0 -62 -5 -85 -29 -135
-57 -119 -161 -185 -291 -185 -130 0 -234 66 -291 185 -24 50 -29 73 -29 135
0 130 66 234 185 291 82 40 184 41 265 3z"/>
<path d="M379 637 c-94 -63 -114 -192 -43 -277 37 -44 75 -60 139 -60 63 0 86
9 133 53 38 37 40 54 7 69 -21 9 -29 7 -60 -21 -66 -58 -159 -36 -185 44 -37
112 95 193 185 114 31 -28 39 -30 60 -21 33 15 31 32 -7 69 -48 44 -70 53
-136 53 -45 0 -67 -5 -93 -23z"/>
</g>
</svg>
