<?xml version="1.0" standalone="no"?>
<!DOCTYPE svg PUBLIC "-//W3C//DTD SVG 20010904//EN"
 "http://www.w3.org/TR/2001/REC-SVG-20010904/DTD/svg10.dtd">
<svg version="1.0" xmlns="http://www.w3.org/2000/svg"
 width="452.000000pt" height="254.000000pt" viewBox="0 0 452.000000 254.000000"
 preserveAspectRatio="xMidYMid meet">

<g transform="translate(0.000000,254.000000) scale(0.100000,-0.100000)"
fill="#000000" stroke="none">
<path d="M1982 2215 c-49 -95 -153 -256 -213 -327 -33 -39 -39 -54 -39 -92 l0
-46 163 0 c113 0 167 -4 175 -12 7 -7 12 -39 12 -75 l0 -63 35 0 35 0 0 64 c0
40 5 68 13 74 7 6 42 12 77 14 l65 3 3 33 3 32 -85 0 -86 0 0 80 0 80 -35 0
-35 0 0 -80 0 -80 -131 0 -132 0 27 33 c56 69 189 273 227 348 l39 79 -25 10
c-15 6 -32 10 -38 10 -7 0 -32 -38 -55 -85z"/>
<path d="M2409 2222 c-42 -21 -62 -40 -87 -82 -31 -51 -33 -60 -30 -126 3 -57
9 -79 31 -112 43 -65 97 -96 178 -100 60 -4 74 -1 114 23 l46 27 -16 -34 c-53
-104 -144 -186 -261 -233 -61 -25 -73 -40 -55 -74 11 -19 14 -19 52 -6 129 46
276 166 331 271 75 140 75 307 1 395 -67 80 -205 103 -304 51z m210 -69 c68
-52 86 -121 49 -192 -29 -57 -64 -82 -121 -88 -87 -10 -153 33 -178 117 -41
136 133 249 250 163z"/>
<path d="M2917 2053 c-14 -13 -6 -23 18 -23 22 0 25 -4 25 -35 0 -24 5 -35 15
-35 10 0 15 11 15 35 0 28 4 35 20 35 11 0 20 7 20 15 0 11 -13 15 -53 15 -30
0 -57 -3 -60 -7z"/>
<path d="M2910 1850 c0 -38 4 -50 15 -50 8 0 15 9 15 20 0 16 7 20 30 20 23 0
30 -4 30 -20 0 -13 7 -20 20 -20 17 0 20 7 20 50 0 43 -3 50 -20 50 -13 0 -20
-7 -20 -20 0 -16 -7 -20 -30 -20 -23 0 -30 4 -30 20 0 11 -7 20 -15 20 -11 0
-15 -12 -15 -50z"/>
<path d="M820 1311 c0 -14 6 -21 19 -21 32 0 42 -24 39 -97 -3 -66 -4 -68 -30
-71 -20 -2 -28 -9 -28 -23 0 -17 8 -19 85 -19 77 0 85 2 85 19 0 15 -8 21 -32
23 -27 2 -34 8 -36 29 -3 25 -1 27 54 31 44 4 62 10 76 28 25 31 23 62 -7 90
-23 22 -37 25 -125 28 -96 4 -100 4 -100 -17z m174 -31 c50 -19 20 -60 -43
-60 -29 0 -31 3 -31 35 0 30 3 35 24 35 14 0 36 -4 50 -10z"/>
<path d="M1235 1228 c-21 -57 -44 -108 -52 -114 -7 -6 -13 -19 -13 -28 0 -13
10 -16 50 -16 42 0 50 3 50 19 0 10 -7 21 -15 25 -8 3 -12 12 -9 21 9 21 94
21 94 0 0 -9 -7 -18 -15 -21 -8 -4 -15 -15 -15 -25 0 -17 8 -19 60 -19 53 0
60 2 60 20 0 11 -6 20 -13 20 -8 0 -30 44 -54 108 -35 94 -43 107 -65 110 -23
3 -28 -4 -63 -100z m80 0 c6 -25 4 -28 -18 -28 -24 0 -25 1 -14 35 11 38 22
36 32 -7z"/>
<path d="M1553 1314 c-4 -10 0 -20 10 -26 24 -13 25 -166 2 -174 -8 -4 -15
-15 -15 -25 0 -17 8 -19 65 -19 58 0 65 2 65 19 0 13 -8 21 -22 23 -18 2 -24
11 -26 36 -2 17 1 32 7 32 15 0 71 -72 71 -92 0 -15 9 -18 45 -18 41 0 45 2
45 25 0 19 -5 25 -22 26 -13 0 -33 13 -45 28 l-22 28 30 22 c25 19 30 28 27
59 -2 31 -9 40 -38 54 -48 24 -168 25 -177 2z m145 -30 c14 -4 22 -14 22 -29
0 -25 -17 -35 -61 -35 -27 0 -29 3 -29 35 0 30 3 35 23 35 12 0 32 -3 45 -6z"/>
<path d="M2021 1308 c-59 -160 -75 -198 -87 -198 -8 0 -14 -9 -14 -20 0 -18 7
-20 55 -20 44 0 55 3 55 16 0 9 -7 22 -17 29 -24 18 -7 35 37 35 44 0 61 -17
37 -35 -10 -7 -17 -20 -17 -29 0 -13 11 -16 55 -16 47 0 55 3 55 19 0 10 -6
21 -14 24 -7 3 -16 17 -20 30 -3 14 -20 61 -37 106 -27 71 -34 81 -55 81 -16
0 -27 -8 -33 -22z m53 -85 c6 -20 4 -23 -19 -23 -22 0 -26 3 -20 18 4 9 10 25
13 36 5 20 14 11 26 -31z"/>
<path d="M2320 1311 c0 -11 9 -23 20 -26 18 -6 20 -15 20 -82 0 -66 -2 -75
-20 -80 -11 -3 -20 -14 -20 -24 0 -18 9 -19 115 -19 l115 0 0 55 c0 48 -2 55
-20 55 -13 0 -20 -7 -20 -19 0 -42 -10 -51 -61 -51 l-49 0 0 69 c0 78 6 101
26 101 8 0 14 9 14 20 0 18 -7 20 -60 20 -53 0 -60 -2 -60 -19z"/>
<path d="M2700 1312 c0 -9 9 -23 20 -30 17 -10 20 -23 20 -83 0 -62 -2 -71
-20 -76 -11 -3 -20 -14 -20 -24 0 -18 9 -19 115 -19 l115 0 0 55 c0 52 -1 55
-24 55 -21 0 -25 -6 -28 -32 -3 -32 -5 -33 -50 -36 l-48 -3 0 81 c0 73 2 82
20 87 11 3 20 14 20 24 0 17 -8 19 -60 19 -51 0 -60 -3 -60 -18z"/>
<path d="M3067 1323 c-14 -14 -6 -31 18 -37 24 -6 25 -9 25 -85 0 -75 -1 -80
-22 -83 -13 -2 -24 -11 -26 -20 -3 -16 8 -18 117 -18 l121 0 0 50 c0 43 -3 50
-19 50 -14 0 -21 -8 -23 -27 -3 -26 -7 -28 -50 -31 -47 -3 -48 -3 -48 27 0 35
19 42 27 11 3 -11 14 -20 24 -20 17 0 19 8 19 60 0 52 -2 60 -19 60 -10 0 -21
-9 -24 -20 -3 -11 -12 -20 -21 -20 -12 0 -16 10 -16 35 0 35 1 35 43 35 48 0
67 -13 67 -47 0 -16 6 -23 20 -23 18 0 20 7 20 55 l0 55 -113 0 c-63 0 -117
-3 -120 -7z"/>
<path d="M3450 1311 c0 -10 9 -21 20 -24 18 -5 20 -14 20 -85 0 -71 -2 -80
-20 -85 -11 -3 -20 -12 -20 -21 0 -14 17 -16 120 -16 l120 0 0 55 c0 52 -1 55
-24 55 -21 0 -25 -6 -28 -32 -3 -32 -5 -33 -50 -36 l-48 -3 0 81 c0 73 2 82
20 87 11 3 20 14 20 24 0 17 -8 19 -65 19 -57 0 -65 -2 -65 -19z"/>
<path d="M1062 868 c-7 -7 -12 -25 -12 -40 0 -35 34 -53 83 -44 43 8 68 33 43
42 -9 3 -23 1 -31 -6 -19 -16 -59 -9 -63 12 -4 22 42 35 63 18 8 -7 22 -9 31
-6 13 5 14 9 4 21 -15 18 -101 20 -118 3z"/>
<path d="M1242 868 c-18 -18 -15 -53 6 -71 21 -19 83 -22 113 -7 22 12 26 59
7 78 -16 16 -110 16 -126 0z m95 -19 c6 -6 9 -18 6 -25 -7 -20 -62 -18 -70 2
-10 28 41 46 64 23z"/>
<path d="M1430 830 c0 -38 4 -50 15 -50 8 0 15 9 15 20 0 16 7 20 35 20 50 0
48 27 -2 33 l-38 4 38 1 c56 3 45 22 -13 22 l-50 0 0 -50z"/>
<path d="M1582 833 c3 -49 25 -71 35 -34 4 16 13 21 40 21 45 0 39 23 -8 31
l-34 6 38 2 c59 2 43 21 -19 21 l-55 0 3 -47z"/>
<path d="M1740 830 l0 -50 50 0 c37 0 50 4 50 14 0 10 -13 16 -37 19 l-38 4
38 1 c25 1 37 7 37 16 0 10 -13 16 -37 19 l-38 4 38 1 c56 3 45 22 -13 22
l-50 0 0 -50z"/>
<path d="M1892 833 l3 -48 53 -3 c41 -2 52 0 52 12 0 10 -13 16 -37 19 l-38 4
38 1 c25 1 37 7 37 16 0 10 -13 16 -37 19 l-38 4 38 1 c59 3 43 22 -19 22
l-55 0 3 -47z"/>
<path d="M2140 830 c0 -38 4 -50 15 -50 8 0 15 9 15 20 0 15 7 20 26 20 17 0
28 -6 31 -20 3 -11 12 -20 19 -20 11 0 14 12 12 48 l-3 47 -57 3 -58 3 0 -51z
m85 20 c-3 -5 -17 -10 -31 -10 -13 0 -24 5 -24 10 0 6 14 10 31 10 17 0 28 -4
24 -10z"/>
<path d="M2316 864 c-38 -37 -1 -84 64 -84 59 0 91 40 64 79 -19 26 -103 30
-128 5z m94 -19 c6 -8 9 -19 5 -25 -10 -16 -65 -12 -72 6 -11 30 44 46 67 19z"/>
<path d="M2512 834 c-25 -50 -22 -65 8 -46 24 15 70 16 70 2 0 -5 9 -10 20
-10 20 0 20 2 -5 50 -34 67 -62 69 -93 4z m58 -5 c0 -5 -7 -9 -15 -9 -15 0
-20 12 -9 23 8 8 24 -1 24 -14z"/>
<path d="M2677 873 c-12 -11 -8 -41 6 -46 10 -4 10 -6 0 -6 -24 -2 -13 -31 13
-37 38 -10 78 7 82 34 2 13 -2 22 -10 22 -10 0 -10 2 1 9 24 15 2 31 -43 31
-23 0 -46 -3 -49 -7z m61 -20 c-10 -2 -26 -2 -35 0 -10 3 -2 5 17 5 19 0 27
-2 18 -5z m17 -43 c-3 -5 -15 -10 -25 -10 -10 0 -22 5 -25 10 -4 6 7 10 25 10
18 0 29 -4 25 -10z"/>
<path d="M2840 870 c0 -5 9 -10 20 -10 17 0 20 -7 20 -40 0 -29 4 -40 15 -40
11 0 15 11 15 40 0 33 3 40 20 40 11 0 20 5 20 10 0 6 -25 10 -55 10 -30 0
-55 -4 -55 -10z"/>
<path d="M3000 830 l0 -50 55 0 c42 0 55 3 55 15 0 11 -12 15 -42 17 l-43 1
38 4 c23 3 37 9 37 18 0 9 -14 15 -37 18 l-38 4 43 1 c62 3 51 22 -13 22 l-55
0 0 -50z"/>
<path d="M3160 830 c0 -36 4 -50 14 -50 7 0 16 9 19 20 3 12 14 20 27 20 13 0
24 -8 27 -20 3 -11 12 -20 19 -20 11 0 14 12 12 48 l-3 47 -57 3 -58 3 0 -51z
m85 20 c-3 -5 -17 -10 -31 -10 -13 0 -24 5 -24 10 0 6 14 10 31 10 17 0 28 -4
24 -10z"/>
<path d="M3334 865 c-4 -8 -1 -22 5 -29 9 -11 9 -15 -1 -18 -22 -8 11 -38 41
-38 38 0 65 22 59 48 -3 12 -1 23 5 25 6 2 7 9 3 15 -11 18 -105 16 -112 -3z
m69 -12 c-7 -2 -21 -2 -30 0 -10 3 -4 5 12 5 17 0 24 -2 18 -5z m17 -43 c0
-13 -30 -13 -50 0 -11 7 -7 10 18 10 17 0 32 -4 32 -10z"/>
<path d="M2698 623 c-14 -3 -15 -9 -7 -30 5 -15 7 -33 4 -40 -3 -10 1 -13 13
-11 9 2 16 12 15 22 -1 13 2 15 10 7 6 -6 18 -11 27 -11 13 0 13 2 0 10 -8 5
-15 19 -15 32 0 23 -15 30 -47 21z m32 -23 c0 -5 -4 -10 -10 -10 -5 0 -10 5
-10 10 0 6 5 10 10 10 6 0 10 -4 10 -10z"/>
<path d="M1745 578 c7 -24 16 -42 20 -41 15 3 44 62 34 69 -12 7 -11 8 -27
-26 -12 -24 -12 -24 -7 8 4 26 1 32 -14 32 -17 0 -18 -3 -6 -42z"/>
<path d="M2583 603 c-23 -4 -32 -23 -12 -23 8 0 10 -12 6 -33 -5 -32 -4 -33
29 -29 25 3 34 9 34 22 0 10 -6 21 -12 24 -10 5 -10 7 0 12 6 3 12 12 12 20 0
14 -13 15 -57 7z m47 -59 c0 -2 -7 -4 -15 -4 -8 0 -15 4 -15 10 0 5 7 7 15 4
8 -4 15 -8 15 -10z"/>
<path d="M1864 588 c-4 -7 -14 -23 -22 -35 -13 -21 -13 -23 7 -23 12 0 19 5
16 10 -3 6 1 10 9 10 10 0 13 -6 10 -15 -4 -9 0 -15 9 -15 12 0 13 7 5 40 -11
41 -21 50 -34 28z"/>
<path d="M1970 566 c0 -13 -3 -31 -6 -40 -4 -11 -1 -16 10 -16 9 0 16 7 16 16
0 12 5 11 19 -7 21 -26 25 -22 34 34 3 21 0 27 -13 27 -13 0 -17 -6 -13 -22 4
-20 2 -19 -12 5 -19 33 -35 35 -35 3z"/>
<path d="M2447 584 c-3 -3 4 -21 15 -40 22 -38 30 -36 46 14 11 32 11 32 -22
32 -18 0 -35 -3 -39 -6z m43 -26 c0 -16 -3 -19 -11 -11 -6 6 -8 16 -5 22 11
17 16 13 16 -11z"/>
<path d="M2092 568 c-25 -25 -6 -68 29 -68 10 0 21 5 25 12 5 7 2 9 -9 5 -21
-8 -44 20 -29 35 8 8 15 8 27 -2 13 -10 15 -9 15 9 0 15 -6 21 -23 21 -13 0
-28 -5 -35 -12z"/>
<path d="M2215 564 c-19 -19 -16 -43 6 -57 37 -23 69 29 37 61 -16 16 -23 15
-43 -4z m40 -14 c8 -13 -14 -42 -26 -34 -5 3 -9 14 -9 25 0 20 24 26 35 9z"/>
<path d="M2326 553 c10 -49 13 -53 38 -53 29 0 33 5 37 45 3 21 -1 31 -13 33
-12 2 -16 -4 -15 -25 1 -15 -2 -28 -8 -28 -5 0 -9 12 -9 28 2 20 -3 27 -17 27
-16 0 -18 -5 -13 -27z"/>
</g>
</svg>
