<?xml version="1.0" standalone="no"?>
<!DOCTYPE svg PUBLIC "-//W3C//DTD SVG 20010904//EN"
 "http://www.w3.org/TR/2001/REC-SVG-20010904/DTD/svg10.dtd">
<svg version="1.0" xmlns="http://www.w3.org/2000/svg"
 width="206.000000pt" height="128.000000pt" viewBox="0 0 206.000000 128.000000"
 preserveAspectRatio="xMidYMid meet">

<g transform="translate(0.000000,128.000000) scale(0.100000,-0.100000)"
fill="#000000" stroke="none">
<path d="M0 640 l0 -640 1030 0 1030 0 0 640 0 640 -1030 0 -1030 0 0 -640z
m844 -206 c4 -9 4 -19 1 -22 -2 -3 -7 3 -11 12 -10 25 -34 0 -34 -35 0 -36 17
-46 36 -23 14 18 15 18 12 -1 -2 -14 -11 -20 -28 -20 -22 0 -25 5 -28 39 -2
21 -1 44 2 52 7 19 42 18 50 -2z m66 7 c17 -12 19 -76 2 -93 -31 -31 -66 37
-42 82 12 22 18 24 40 11z m63 -1 c-27 -11 -29 -25 -5 -39 15 -10 16 -10 0
-11 -10 0 -18 -10 -21 -27 -2 -16 -5 -2 -6 30 -1 56 -1 57 27 56 26 0 26 -1 5
-9z m120 3 c-28 -5 -32 -42 -5 -44 16 -1 16 -2 0 -6 -26 -7 -22 -41 5 -46 16
-3 13 -5 -10 -6 l-33 -1 0 50 c0 37 -4 50 -14 50 -24 0 -30 -22 -11 -37 16
-11 16 -13 3 -13 -10 0 -18 -10 -21 -27 -2 -16 -5 -2 -6 30 l-1 57 58 -1 c31
-1 47 -4 35 -6z m65 0 c-20 -5 -25 -43 -5 -44 10 0 10 -2 0 -6 -22 -8 -15 -41
10 -46 16 -3 13 -5 -10 -6 l-33 -1 0 55 c0 54 1 55 28 54 16 -1 20 -3 10 -6z
m113 -9 c9 -12 10 -20 2 -33 -7 -11 -8 -23 -2 -32 11 -18 11 -29 1 -29 -5 0
-13 12 -19 28 l-11 27 -1 -27 c-2 -53 -21 -28 -21 27 0 47 3 55 19 55 10 0 24
-7 32 -16z m81 -9 c15 -34 0 -80 -27 -80 -27 0 -42 46 -27 80 6 14 19 25 27
25 8 0 21 -11 27 -25z m64 -33 c7 -29 8 -52 3 -52 -5 0 -9 7 -9 15 0 8 -7 15
-15 15 -8 0 -15 -7 -15 -15 0 -8 -5 -15 -11 -15 -6 0 -8 7 -5 16 3 9 9 34 12
55 9 53 26 45 40 -19z m68 43 c3 -8 1 -15 -4 -15 -6 0 -10 5 -10 12 0 9 -3 9
-12 0 -9 -9 -7 -17 11 -33 25 -24 24 -52 -3 -57 -20 -4 -44 14 -32 25 4 4 11
1 15 -6 5 -7 14 -10 21 -6 8 5 4 16 -16 36 -23 24 -25 31 -14 44 16 19 36 19
44 0z m114 8 c-20 -5 -25 -43 -5 -44 10 0 10 -2 0 -6 -19 -7 -16 -41 5 -46 10
-3 6 -5 -10 -6 -27 -1 -28 1 -28 49 0 38 -4 50 -15 50 -11 0 -15 -13 -17 -52
l-1 -53 -4 45 c-2 26 -11 50 -20 58 -14 10 -6 12 48 11 35 -1 56 -3 47 -6z
m78 -52 l1 -54 -16 29 -15 29 -7 -30 c-5 -23 -7 -17 -8 28 -1 55 0 58 22 55
20 -3 22 -9 23 -57z m72 39 c4 -13 3 -13 -10 -2 -24 19 -31 -2 -8 -23 11 -10
20 -29 20 -42 0 -19 -5 -24 -22 -21 -12 2 -23 10 -26 18 -4 12 -2 13 9 3 17
-17 29 -16 29 2 0 8 -9 19 -20 25 -20 11 -27 40 -13 54 11 11 36 3 41 -14z"/>
<path d="M885 428 c-9 -22 -2 -68 10 -71 14 -3 19 63 6 76 -7 7 -12 5 -16 -5z"/>
<path d="M1240 421 c0 -12 5 -21 10 -21 6 0 10 6 10 14 0 8 -4 18 -10 21 -5 3
-10 -3 -10 -14z"/>
<path d="M1315 428 c-9 -22 -2 -68 10 -71 14 -3 19 63 6 76 -7 7 -12 5 -16 -5z"/>
<path d="M1392 400 c0 -14 2 -19 5 -12 2 6 2 18 0 25 -3 6 -5 1 -5 -13z"/>
<path d="M1640 420 c0 -13 5 -20 13 -17 6 2 12 10 12 17 0 7 -6 15 -12 18 -8
2 -13 -5 -13 -18z"/>
</g>
</svg>
