<?xml version="1.0" standalone="no"?>
<!DOCTYPE svg PUBLIC "-//W3C//DTD SVG 20010904//EN"
 "http://www.w3.org/TR/2001/REC-SVG-20010904/DTD/svg10.dtd">
<svg version="1.0" xmlns="http://www.w3.org/2000/svg"
 width="550.000000pt" height="220.000000pt" viewBox="0 0 550.000000 220.000000"
 preserveAspectRatio="xMidYMid meet">

<g transform="translate(0.000000,220.000000) scale(0.100000,-0.100000)"
fill="#000000" stroke="none">
<path d="M2630 1715 c-14 -8 -51 -21 -82 -30 -40 -11 -69 -27 -93 -51 -29 -28
-39 -33 -50 -24 -14 12 -55 -2 -55 -18 0 -5 -15 -6 -33 -4 -21 2 -48 -4 -72
-17 -25 -13 -48 -18 -63 -14 -19 4 -23 3 -17 -7 5 -8 4 -11 -3 -6 -6 3 -13 -2
-15 -11 -4 -16 -5 -16 -6 -1 0 9 4 20 9 23 22 14 10 35 -21 35 -23 0 -30 -4
-26 -14 4 -11 -1 -13 -23 -10 -23 4 -31 0 -46 -26 -19 -32 -29 -37 -39 -20 -7
11 -98 14 -108 3 -4 -3 -24 -8 -45 -10 -45 -4 -86 -32 -90 -62 -3 -21 -4 -21
-296 -21 -304 0 -316 -2 -316 -42 0 -26 30 -35 45 -15 11 15 50 17 401 17 219
0 395 4 404 9 10 7 18 4 28 -10 17 -24 34 -24 57 1 36 40 151 35 170 -8 9 -21
35 -29 48 -15 4 3 19 7 34 9 43 4 138 21 162 29 12 4 21 2 21 -4 0 -17 27 -13
34 5 6 16 8 16 24 0 21 -18 49 -21 72 -6 9 6 19 5 28 -2 10 -9 15 -9 21 0 5 8
17 9 40 2 18 -5 42 -5 55 -1 12 5 33 7 48 4 14 -3 41 0 61 5 23 6 39 7 43 1 3
-5 22 -9 42 -9 20 0 96 -2 167 -5 114 -5 216 2 291 21 12 3 28 -1 38 -11 12
-12 20 -14 29 -7 8 7 18 7 27 2 9 -6 182 -10 404 -10 351 0 390 -2 401 -17 15
-20 45 -11 45 15 0 41 -7 42 -421 42 -384 0 -397 1 -402 19 -10 40 118 68 159
35 13 -11 15 -17 7 -20 -18 -8 -16 -24 2 -24 16 0 20 27 7 46 -4 5 -18 18 -32
27 -29 20 -132 23 -177 6 -43 -17 -71 -18 -77 -3 -3 8 -17 14 -31 14 -18 0
-25 -5 -25 -19 0 -11 -10 -27 -22 -35 -26 -19 -47 -21 -30 -4 17 17 15 55 -4
62 -21 8 -34 -1 -34 -24 0 -25 -31 -41 -79 -42 -67 -1 -101 11 -106 38 -3 13
-7 35 -10 47 -7 36 -44 77 -69 77 -23 0 -63 -23 -83 -48 -11 -13 -17 -10 -44
22 -23 25 -41 36 -60 36 -31 0 -140 54 -152 76 -10 18 -35 18 -67 -1z m38 -17
c-7 -13 -19 -27 -25 -31 -7 -4 -13 -17 -13 -27 0 -21 -15 -27 -25 -10 -3 6 -1
10 4 10 6 0 11 9 11 20 0 21 33 60 50 60 6 0 5 -9 -2 -22z m-104 -36 c-70 -24
-102 -47 -110 -77 -3 -14 -10 -25 -15 -25 -5 0 -9 -7 -9 -15 0 -8 7 -15 15
-15 18 0 20 -16 4 -26 -17 -10 -30 17 -24 49 11 64 92 127 160 127 26 -1 23
-3 -21 -18z m196 -14 c19 -13 36 -30 38 -38 3 -8 -8 -3 -24 12 -16 15 -40 31
-54 37 -15 6 -18 10 -9 10 9 1 31 -9 49 -21z m-164 -28 c16 -6 37 -23 47 -38
18 -30 23 -14 6 21 -9 20 -9 20 4 5 17 -22 43 -23 63 -3 9 8 21 15 27 14 9 0
8 -2 0 -6 -7 -2 -13 -12 -13 -21 0 -15 2 -15 10 -2 9 13 13 11 29 -9 10 -13
23 -21 30 -17 7 4 11 0 11 -13 0 -10 3 -26 6 -35 3 -9 1 -16 -5 -16 -6 0 -11
7 -11 15 0 23 -41 55 -72 55 -36 0 -78 -40 -78 -75 0 -18 -5 -25 -20 -25 -13
0 -20 7 -20 20 0 11 5 20 10 20 11 0 14 33 3 43 -3 4 -12 2 -18 -3 -9 -7 -16
-6 -24 4 -9 11 -6 14 14 14 33 0 41 8 25 27 -13 16 -50 21 -50 6 0 -4 -12 -6
-26 -3 -20 3 -26 0 -31 -17 -3 -11 -10 -21 -15 -21 -5 0 -6 -4 -3 -10 3 -6 -1
-7 -10 -3 -13 5 -14 7 -3 14 7 5 14 13 14 19 1 5 2 15 3 20 0 6 15 10 31 10
17 0 30 5 30 10 0 12 0 12 36 0z m404 -30 c-53 -52 -31 -131 45 -160 14 -5 25
-14 25 -20 0 -11 -46 4 -68 23 -16 13 -92 17 -92 5 0 -5 -8 -4 -19 1 -10 6
-22 7 -26 3 -5 -4 -5 2 0 13 24 64 26 96 4 128 l-21 32 22 -25 c13 -14 27 -24
31 -22 5 1 9 -3 9 -10 0 -6 3 -8 7 -5 3 4 12 2 20 -4 10 -9 13 -8 13 2 0 13
58 68 73 69 4 0 -6 -13 -23 -30z m-657 -38 c35 -31 12 -77 -30 -61 -13 5 -23
15 -23 24 0 18 21 20 38 3 7 -7 12 -8 12 -2 0 15 -22 34 -41 34 -28 0 -44 -28
-33 -57 29 -80 215 -83 271 -3 8 11 19 20 24 20 6 0 3 -10 -5 -22 -24 -33 -19
-45 7 -20 27 26 39 28 31 7 -4 -8 -12 -15 -18 -15 -7 0 -22 -9 -34 -20 -17
-16 -22 -17 -22 -6 0 13 -7 12 -42 -4 -56 -24 -184 -25 -198 -1 -4 9 -12 12
-16 8 -5 -5 -2 -12 6 -17 11 -7 12 -12 4 -20 -9 -9 -15 -7 -25 7 -8 11 -22 22
-31 26 -10 3 -18 14 -18 24 0 13 3 14 12 5 19 -19 41 -15 33 6 -11 26 -24 84
-18 78 3 -3 17 4 31 15 27 21 54 18 85 -9z m217 24 c0 -3 -4 -8 -10 -11 -5 -3
-10 -1 -10 4 0 6 5 11 10 11 6 0 10 -2 10 -4z m-148 -36 c1 -16 2 -38 2 -47 1
-10 -3 -18 -9 -18 -5 0 -15 -4 -22 -8 -9 -6 -8 2 2 26 8 19 11 44 8 55 -3 13
-1 22 6 22 6 0 12 -13 13 -30z m452 21 c3 -5 -3 -11 -14 -14 -13 -3 -20 0 -20
9 0 15 26 19 34 5z m-773 -26 c7 17 8 16 8 -7 1 -14 -5 -28 -11 -31 -10 -3
-10 -9 -1 -25 12 -19 10 -23 -17 -37 -17 -9 -30 -20 -30 -25 0 -6 -4 -10 -10
-10 -15 0 0 33 24 52 19 16 20 18 5 33 -13 13 -14 21 -5 40 10 21 12 22 20 7
8 -14 10 -14 17 3z m43 -35 c8 0 16 -11 18 -25 4 -17 1 -25 -8 -25 -8 0 -14 9
-14 19 0 11 -4 23 -10 26 -5 3 -9 18 -9 33 l2 27 4 -27 c2 -16 10 -28 17 -28z
m436 35 c0 -9 -6 -12 -15 -9 -8 4 -15 10 -15 15 0 5 7 9 15 9 8 0 15 -7 15
-15z m181 -1 c9 -11 10 -20 2 -32 -13 -21 -35 -22 -41 -3 -3 10 0 12 12 8 10
-4 16 -1 16 8 0 19 -24 19 -40 0 -21 -25 -4 -65 30 -72 41 -8 47 -22 10 -21
-34 1 -70 37 -70 70 0 51 51 78 81 42z m-534 -26 c-3 -8 -6 -5 -6 6 -1 11 2
17 5 13 3 -3 4 -12 1 -19z m300 0 c-3 -8 -6 -5 -6 6 -1 11 2 17 5 13 3 -3 4
-12 1 -19z m-600 -4 c-16 -8 -34 -13 -40 -10 -7 2 -4 5 6 5 9 1 17 6 17 11 0
6 10 10 23 10 21 -1 20 -2 -6 -16z m1413 2 c0 -7 -8 -20 -17 -27 -16 -13 -17
-12 -5 3 8 9 11 22 7 28 -3 5 -1 10 4 10 6 0 11 -6 11 -14z m77 -37 c-8 -20
-18 -29 -33 -29 -12 0 -37 -2 -55 -5 -29 -5 -28 -4 9 9 54 18 72 33 72 60 0
15 3 17 9 7 5 -7 4 -25 -2 -42z m228 44 c-11 -2 -50 -16 -87 -30 -53 -21 -66
-29 -57 -39 6 -7 9 -19 6 -26 -4 -8 -6 -7 -6 4 -1 10 -12 20 -26 24 -33 8 -54
34 -29 35 11 1 22 1 25 1 4 -1 28 7 55 18 27 10 69 19 94 18 25 0 36 -2 25 -5z
m-1650 -13 c8 -13 -5 -13 -25 0 -13 8 -13 10 2 10 9 0 20 -4 23 -10z m-148 -6
c-3 -3 -12 -4 -19 -1 -8 3 -5 6 6 6 11 1 17 -2 13 -5z m963 -39 c-8 -22 -13
-25 -25 -15 -13 10 -12 15 8 30 27 23 30 20 17 -15z m-871 9 c17 -4 31 -13 31
-20 0 -11 -21 -14 -95 -14 -52 0 -95 4 -95 8 0 25 90 40 159 26z m732 -21 c13
-15 12 -15 -11 -3 -34 17 -36 20 -18 20 9 0 22 -7 29 -17z m-674 -27 c-6 -14
-51 -16 -409 -14 l-403 3 404 2 403 3 -5 22 c-4 15 -3 18 5 10 6 -6 8 -18 5
-26z m1257 19 c-7 -17 -9 -17 -53 -9 -46 9 -38 24 14 24 35 0 43 -3 39 -15z
m299 -5 c-5 -20 0 -20 398 -22 l404 -3 -399 -2 c-242 -2 -404 1 -409 6 -5 5
-7 17 -4 25 9 23 16 20 10 -4z m-698 -19 c-6 -5 -25 10 -25 20 0 5 6 4 14 -3
8 -7 12 -15 11 -17z m-255 9 c0 -5 -2 -10 -4 -10 -3 0 -8 5 -11 10 -3 6 -1 10
4 10 6 0 11 -4 11 -10z m-1415 -30 c3 -5 1 -10 -4 -10 -6 0 -11 5 -11 10 0 6
2 10 4 10 3 0 8 -4 11 -10z m3185 0 c0 -5 -5 -10 -11 -10 -5 0 -7 5 -4 10 3 6
8 10 11 10 2 0 4 -4 4 -10z"/>
<path d="M2922 1504 c2 -15 9 -29 16 -32 10 -3 13 4 10 24 -2 15 -9 29 -16 32
-10 3 -13 -4 -10 -24z"/>
<path d="M1200 1340 c0 -7 527 -10 1560 -10 1033 0 1560 3 1560 10 0 7 -527
10 -1560 10 -1033 0 -1560 -3 -1560 -10z"/>
<path d="M2655 1210 c-11 -13 -14 -20 -6 -20 18 0 51 19 51 30 0 17 -26 11
-45 -10z"/>
<path d="M1238 1168 c16 -16 16 -110 0 -126 -9 -9 3 -12 55 -12 66 0 67 0 67
27 l0 27 -20 -22 c-36 -39 -50 -29 -50 36 0 32 5 63 12 70 9 9 2 12 -32 12
-34 0 -41 -3 -32 -12z m29 -95 c-2 -21 -4 -6 -4 32 0 39 2 55 4 38 2 -18 2
-50 0 -70z"/>
<path d="M1388 1168 c16 -16 16 -125 0 -132 -7 -3 19 -4 57 -3 66 2 70 3 73
27 l4 25 -22 -23 c-28 -30 -54 -25 -58 11 -4 31 14 36 34 10 12 -16 13 -14 14
21 0 37 -1 38 -18 23 -26 -24 -34 -21 -30 10 4 34 22 39 47 14 l21 -21 0 25
c0 24 -2 25 -67 25 -52 0 -64 -3 -55 -12z m29 -95 c-2 -21 -4 -6 -4 32 0 39 2
55 4 38 2 -18 2 -50 0 -70z"/>
<path d="M1630 1165 c16 -20 8 -114 -11 -126 -10 -6 -3 -9 21 -9 26 0 31 3 22
12 -14 14 -16 68 -3 68 4 0 16 -21 26 -46 20 -52 25 -49 54 21 l20 50 0 -47
c1 -28 -4 -48 -11 -51 -7 -3 7 -6 32 -6 25 0 40 3 33 7 -18 11 -20 121 -2 133
10 6 5 9 -19 9 -30 0 -35 -5 -53 -47 -23 -52 -23 -51 -49 20 -8 22 -16 27 -41
27 -27 0 -30 -2 -19 -15z m147 -92 c-2 -21 -4 -6 -4 32 0 39 2 55 4 38 2 -18
2 -50 0 -70z"/>
<path d="M1892 1120 c-13 -33 -30 -67 -39 -75 -13 -13 -11 -15 15 -15 26 0 29
3 24 26 -4 22 -2 25 19 22 18 -2 24 -9 23 -25 0 -20 4 -23 40 -23 31 1 37 3
25 10 -9 5 -27 39 -40 75 -12 36 -28 65 -33 65 -6 0 -22 -27 -34 -60z m26 -29
c-15 -5 -19 4 -11 24 6 18 7 18 13 -1 4 -10 3 -21 -2 -23z"/>
<path d="M2038 1169 c15 -16 16 -111 0 -127 -9 -9 -2 -12 33 -11 24 0 38 3 32
6 -7 2 -13 17 -13 31 1 26 1 26 16 7 8 -11 19 -20 24 -20 4 0 12 -4 17 -9 5
-5 3 -6 -4 -2 -7 4 -13 2 -13 -3 0 -6 13 -11 30 -11 l29 0 -24 26 c-29 31 -30
37 -13 64 22 35 -1 55 -68 58 -47 2 -57 1 -46 -9z m29 -96 c-2 -21 -4 -6 -4
32 0 39 2 55 4 38 2 -18 2 -50 0 -70z m51 64 c2 -19 -1 -27 -12 -27 -11 0 -16
10 -16 31 0 38 24 35 28 -4z"/>
<path d="M2230 1160 c-26 -26 -27 -91 -2 -112 23 -20 59 -28 93 -21 23 4 29
11 29 31 l0 26 -16 -22 c-18 -26 -56 -29 -75 -6 -16 19 -15 79 1 99 17 21 40
19 67 -7 l23 -21 0 26 c0 26 -2 27 -50 27 -37 0 -55 -5 -70 -20z"/>
<path d="M2388 1168 c16 -16 16 -125 0 -131 -7 -3 7 -5 32 -5 25 0 39 2 33 5
-7 2 -13 18 -13 34 0 26 4 29 30 29 26 0 30 -3 30 -29 0 -16 -6 -32 -12 -34
-7 -3 7 -5 32 -5 25 0 39 2 33 5 -17 6 -17 115 -1 131 9 9 2 12 -32 12 -34 0
-41 -3 -32 -12 7 -7 12 -22 12 -35 0 -19 -5 -23 -30 -23 -25 0 -30 4 -30 23 0
13 5 28 12 35 9 9 2 12 -32 12 -34 0 -41 -3 -32 -12z m29 -95 c-2 -21 -4 -6
-4 32 0 39 2 55 4 38 2 -18 2 -50 0 -70z m100 0 c-2 -21 -4 -6 -4 32 0 39 2
55 4 38 2 -18 2 -50 0 -70z"/>
<path d="M2603 1169 c13 -8 17 -23 17 -64 0 -41 -4 -56 -17 -64 -14 -8 0 -10
55 -11 70 0 72 1 72 25 l0 25 -21 -21 c-27 -27 -53 -21 -57 14 -4 31 21 38 37
10 8 -14 10 -10 10 22 0 32 -2 36 -10 23 -15 -26 -39 -22 -39 6 0 34 16 41 46
21 29 -19 38 -16 28 9 -5 13 -20 16 -73 16 -50 -1 -62 -3 -48 -11z"/>
<path d="M2840 1160 c-12 -22 2 -60 22 -60 6 0 5 7 -3 18 -13 15 -12 16 3 4
10 -8 16 -19 15 -24 -1 -6 4 -13 12 -16 8 -3 11 0 7 7 -11 17 0 13 15 -6 10
-11 10 -14 2 -9 -9 5 -13 0 -13 -13 0 -29 -33 -27 -53 2 l-16 22 0 -26 c-1
-22 5 -28 30 -33 37 -7 65 6 75 36 5 18 -1 28 -30 53 -20 16 -36 36 -36 43 0
17 29 15 36 -3 9 -22 24 -18 24 5 0 17 -7 20 -40 20 -29 0 -42 -5 -50 -20z"/>
<path d="M2957 1158 c-8 -31 -2 -33 23 -8 29 29 40 17 40 -45 0 -41 -4 -56
-17 -64 -14 -8 -7 -10 32 -10 39 0 46 2 33 10 -14 8 -18 23 -18 64 0 62 11 74
40 45 l20 -20 0 25 c0 24 -2 25 -74 25 -68 0 -74 -2 -79 -22z"/>
<path d="M3251 1154 c-54 -69 1 -142 94 -127 30 5 35 9 35 33 0 16 6 31 13 33
6 3 -10 6 -38 6 -39 0 -46 -2 -32 -10 9 -5 17 -19 17 -29 0 -27 -46 -27 -60
-1 -23 44 1 111 40 111 10 0 26 -10 34 -22 l16 -22 0 27 c0 26 -2 27 -49 27
-42 0 -53 -4 -70 -26z m-4 -66 c-3 -7 -5 -2 -5 12 0 14 2 19 5 13 2 -7 2 -19
0 -25z m110 -35 c-3 -10 -5 -4 -5 12 0 17 2 24 5 18 2 -7 2 -21 0 -30z"/>
<path d="M3428 1168 c16 -16 16 -125 0 -132 -7 -3 19 -4 57 -3 66 2 70 3 73
27 l4 25 -26 -24 c-14 -14 -31 -21 -40 -18 -21 8 -21 57 -1 57 8 0 15 -4 15
-10 0 -5 5 -10 10 -10 6 0 10 11 10 25 0 25 -14 33 -25 15 -12 -20 -26 -10
-23 17 4 34 22 39 47 14 l21 -21 0 25 c0 24 -2 25 -67 25 -52 0 -64 -3 -55
-12z m29 -95 c-2 -21 -4 -6 -4 32 0 39 2 55 4 38 2 -18 2 -50 0 -70z"/>
<path d="M3610 1160 c-20 -20 -26 -63 -14 -95 10 -25 62 -47 94 -40 45 10 65
41 61 98 -2 31 -38 57 -81 57 -27 0 -47 -7 -60 -20z m98 -23 c24 -50 -16 -116
-55 -91 -22 13 -29 74 -13 104 16 29 51 22 68 -13z m-101 -44 c-3 -10 -5 -4
-5 12 0 17 2 24 5 18 2 -7 2 -21 0 -30z"/>
<path d="M3788 1168 c16 -16 16 -125 0 -131 -7 -3 7 -5 32 -5 25 0 39 2 33 5
-15 5 -18 53 -4 53 5 0 14 -13 21 -30 10 -24 18 -30 43 -30 l30 0 -20 23 c-32
35 -35 46 -19 63 36 35 4 64 -72 64 -43 0 -53 -3 -44 -12z m29 -95 c-2 -21 -4
-6 -4 32 0 39 2 55 4 38 2 -18 2 -50 0 -70z m57 54 c-9 -25 -34 -21 -34 6 0
13 3 27 7 31 11 11 34 -19 27 -37z"/>
<path d="M3982 1157 c-23 -25 -28 -66 -12 -97 25 -46 132 -46 139 1 1 13 8 27
15 31 6 4 -11 8 -39 8 -39 -1 -46 -3 -32 -11 27 -16 22 -49 -8 -49 -42 0 -63
81 -29 114 21 21 40 20 64 -4 l20 -20 0 25 c0 23 -3 25 -48 25 -38 0 -53 -5
-70 -23z m-5 -64 c-3 -10 -5 -4 -5 12 0 17 2 24 5 18 2 -7 2 -21 0 -30z m110
-40 c-3 -10 -5 -4 -5 12 0 17 2 24 5 18 2 -7 2 -21 0 -30z"/>
<path d="M4153 1169 c20 -12 25 -107 5 -127 -9 -9 3 -12 54 -12 62 0 66 1 70
25 6 30 4 31 -23 4 -27 -27 -53 -21 -57 14 -4 31 21 38 37 10 8 -14 10 -10 10
22 0 32 -2 36 -10 23 -15 -26 -39 -22 -39 6 0 34 16 41 46 21 29 -19 38 -16
28 9 -5 13 -20 16 -73 16 -50 -1 -62 -3 -48 -11z"/>
<path d="M3100 1046 c0 -8 4 -17 9 -20 11 -7 33 18 24 27 -12 12 -33 7 -33 -7z"/>
<path d="M1542 863 c340 -3 346 -4 341 -23 -5 -19 -14 -20 -340 -20 -326 0
-335 1 -351 21 -21 25 -52 16 -52 -15 0 -44 11 -46 265 -46 228 0 241 -1 252
-20 24 -37 71 -53 137 -47 34 3 80 13 103 21 l42 15 13 -35 c14 -39 30 -43 55
-14 10 11 25 20 35 20 10 0 18 7 18 17 0 15 2 15 14 -2 13 -18 14 -18 41 3 34
27 81 29 94 4 5 -10 9 -33 9 -52 -2 -48 33 -74 87 -66 22 3 60 7 85 9 25 2 55
7 67 11 16 6 23 3 27 -12 11 -34 82 -90 123 -98 21 -4 51 -15 68 -26 39 -23
74 -23 83 1 4 11 35 38 68 60 34 23 64 48 67 56 4 10 16 12 42 8 31 -5 37 -3
42 16 3 11 6 21 7 21 0 0 23 -11 50 -25 27 -14 60 -25 73 -25 24 0 75 43 86
72 10 28 49 31 172 14 143 -20 208 -20 268 -2 39 12 47 12 51 0 8 -22 24 -16
38 13 17 36 61 52 85 31 21 -18 80 -7 90 17 4 13 42 15 232 15 239 0 251 2
251 46 0 31 -31 40 -52 15 -16 -20 -25 -21 -351 -21 -326 0 -335 1 -340 20 -5
19 1 20 341 23 191 1 -357 2 -1218 2 -861 0 -1409 -1 -1218 -2z m2048 -13 c0
-6 -10 -8 -23 -5 -25 7 -50 -13 -45 -36 5 -22 -53 -22 -165 1 -131 27 -233 35
-277 23 -28 -8 -38 -7 -49 4 -15 17 -56 10 -82 -13 -20 -18 -30 -18 -23 1 8
19 -15 19 -52 0 -25 -13 -31 -13 -51 1 -40 26 -226 13 -261 -19 -25 -22 -44
-22 -60 3 -15 24 -48 26 -60 3 -9 -15 -12 -14 -37 5 -32 26 -48 27 -64 8 -11
-13 -17 -13 -46 0 -37 15 -168 18 -248 5 -33 -6 -55 -4 -73 5 -14 8 -30 11
-35 8 -5 -3 -9 0 -9 5 0 8 252 11 830 11 557 0 830 -3 830 -10z m-1685 -31
c-4 -5 -1 -9 6 -9 9 0 10 -3 3 -10 -7 -7 -140 -9 -379 -8 -345 3 -370 4 -371
21 -1 12 -1 13 3 2 4 -13 52 -15 368 -15 360 0 364 0 360 20 -2 12 0 18 6 15
5 -4 7 -11 4 -16z m1720 1 c-4 -20 2 -20 360 -20 316 0 364 2 368 15 4 11 4
10 3 -2 -1 -17 -25 -18 -366 -21 -201 -1 -372 0 -380 3 -13 5 -13 7 0 15 8 6
11 10 7 10 -5 0 -5 5 -2 10 10 16 14 12 10 -10z m-1640 -20 c7 0 49 7 92 15
43 8 97 15 121 15 66 0 141 -37 126 -62 -9 -14 -24 -8 -18 7 4 10 -5 20 -30
30 -69 29 -169 13 -195 -32 -10 -17 -10 -17 -11 0 0 29 -25 14 -28 -17 -2 -15
-9 -25 -15 -23 -6 2 -19 -6 -29 -17 -15 -18 -19 -19 -28 -6 -5 8 -10 28 -10
44 0 23 -3 27 -17 21 -10 -4 -27 -7 -37 -7 -11 1 -27 -3 -38 -9 -12 -6 -18 -6
-18 0 0 6 12 13 28 17 54 11 72 22 65 41 -7 17 -6 17 11 1 9 -10 23 -18 31
-18z m772 15 c20 -8 33 -18 30 -22 -4 -3 -18 0 -32 7 -22 12 -27 11 -45 -5
-22 -20 -26 -50 -9 -61 8 -4 9 0 4 15 -5 16 -3 20 9 15 20 -8 21 -33 1 -40
-41 -16 -60 51 -25 86 24 24 22 24 67 5z m257 6 c4 -5 -3 -7 -14 -4 -13 4 -27
-3 -40 -18 -10 -13 -19 -20 -20 -15 -1 30 60 60 74 37z m550 -6 c7 -19 -17
-42 -53 -50 -20 -4 -28 -12 -26 -23 2 -14 13 -17 67 -16 71 2 113 17 101 37
-4 8 -1 7 9 -1 13 -10 22 -11 37 -3 28 15 40 14 16 -2 -39 -25 -131 -51 -180
-51 -76 1 -170 15 -156 24 24 14 7 43 -34 56 l-40 13 45 -7 c25 -4 77 -7 115
-7 65 0 70 2 73 23 4 25 17 29 26 7z m-1176 -8 c6 -6 13 -26 17 -42 l7 -30
-21 33 c-11 17 -28 32 -36 32 -9 0 -13 5 -10 10 9 14 30 13 43 -3z m112 -36
c0 -12 3 -12 12 -3 7 7 20 12 30 12 14 0 18 -8 18 -33 0 -18 3 -37 8 -43 4 -5
0 -2 -9 8 -9 9 -19 14 -23 11 -9 -9 -46 27 -46 45 0 9 -8 25 -17 36 -18 21
-18 21 5 2 12 -11 22 -26 22 -35z m335 19 c3 -6 0 -10 -7 -10 -7 0 -19 9 -26
21 -12 19 -11 19 7 10 11 -6 23 -16 26 -21z m68 -7 c-4 -9 0 -11 13 -6 17 6
17 5 5 -10 -9 -11 -12 -31 -8 -56 4 -30 1 -41 -10 -46 -9 -3 -18 -4 -20 -1 -8
8 -10 55 -2 51 4 -3 11 -1 14 5 4 6 -5 22 -20 36 -26 24 -30 49 -7 49 5 0 14
3 18 8 10 10 23 -13 17 -30z m262 29 c6 -4 17 -16 25 -27 14 -19 14 -20 -6 -2
-14 11 -36 17 -65 16 -27 -1 -34 -3 -19 -6 42 -8 42 -19 0 -15 -50 5 -70 -10
-70 -53 0 -38 19 -58 52 -53 26 3 33 38 9 46 -8 3 -11 0 -7 -7 10 -16 -2 -31
-19 -24 -21 7 -19 40 3 52 14 7 25 6 40 -5 30 -21 28 -59 -3 -80 -21 -14 -30
-14 -55 -4 -36 15 -50 37 -50 77 0 33 5 41 44 71 29 22 99 30 121 14z m122 -2
c8 0 12 -4 9 -9 -3 -5 1 -14 9 -21 8 -7 12 -17 9 -22 -3 -5 -16 -1 -28 11 -11
11 -34 27 -51 36 l-30 17 34 -6 c18 -3 40 -6 48 -6z m-623 -14 c-3 -8 -16 -16
-30 -19 -24 -4 -24 -3 -8 14 20 22 46 25 38 5z m-186 -39 c2 -15 -1 -27 -7
-27 -6 0 -11 7 -11 15 0 8 -4 15 -10 15 -5 0 -10 7 -10 16 0 28 35 11 38 -19z
m785 1 c-5 -10 -33 10 -33 23 0 5 9 4 19 -3 11 -7 17 -16 14 -20z m-1449 12
c-47 -19 -108 -22 -129 -6 -18 14 -13 15 65 15 57 0 78 -3 64 -9z m1826 -4 c0
-17 -16 -23 -85 -31 l-50 -6 35 16 c19 9 43 14 53 11 10 -2 21 2 24 10 7 18
23 18 23 0z m185 3 c11 -16 2 -17 -25 -2 -24 12 -24 13 -3 13 12 0 25 -5 28
-11z m-1591 -14 c3 -8 1 -15 -4 -15 -6 0 -10 7 -10 15 0 8 2 15 4 15 2 0 6 -7
10 -15z m1633 9 c-3 -3 -12 -4 -19 -1 -8 3 -5 6 6 6 11 1 17 -2 13 -5z m-880
-31 c-3 -3 -11 -2 -17 2 -9 6 -9 10 1 16 14 8 27 -7 16 -18z m-673 1 c12 -12
13 -20 5 -35 -12 -23 -33 -34 -48 -25 -15 9 -2 36 17 36 11 0 13 3 6 10 -20
20 -45 0 -42 -34 3 -27 7 -31 35 -34 39 -4 83 33 84 70 0 23 0 23 10 -2 9 -22
6 -29 -21 -52 -38 -35 -103 -39 -120 -9 -14 28 -12 52 7 73 20 22 46 23 67 2z
m836 6 c0 -5 -2 -10 -4 -10 -3 0 -8 5 -11 10 -3 6 -1 10 4 10 6 0 11 -4 11
-10z m-223 -22 c-3 -8 -6 -5 -6 6 -1 11 2 17 5 13 3 -3 4 -12 1 -19z m-259
-15 c-2 -15 5 -19 40 -21 36 -3 44 0 51 20 l10 23 0 -23 c1 -27 -39 -46 -80
-37 -32 7 -54 29 -44 45 10 16 26 12 23 -7z m496 2 c3 -8 1 -15 -4 -15 -6 0
-10 7 -10 15 0 8 2 15 4 15 2 0 6 -7 10 -15z m-636 -13 c2 -7 -2 -10 -12 -6
-12 5 -16 -1 -17 -22 0 -25 -2 -26 -8 -9 -4 11 -6 28 -3 38 5 20 33 19 40 -1z
m322 -2 c0 7 2 11 5 8 9 -9 -6 -38 -20 -38 -7 0 -16 -11 -19 -25 -5 -19 -13
-25 -34 -25 -17 -1 -36 -11 -52 -30 -30 -37 -70 -41 -70 -7 0 20 -4 23 -29 19
-23 -3 -30 1 -36 17 -3 12 -11 19 -16 16 -5 -4 -9 0 -9 8 0 11 -7 13 -22 10
-13 -3 -19 -2 -15 3 12 12 57 16 57 4 0 -15 19 -12 37 5 19 20 30 11 13 -10
-9 -11 -10 -19 -2 -27 7 -7 14 -4 24 11 19 31 40 28 28 -5 -13 -33 -13 -34 4
-34 16 0 29 27 19 43 -4 7 0 8 11 4 58 -23 83 -18 54 11 -9 9 -9 12 0 12 7 0
18 11 24 25 11 24 12 24 30 9 13 -13 18 -14 18 -4z m11 -64 c-26 -27 -121 -81
-121 -69 0 5 16 15 35 22 19 7 47 25 63 41 15 16 31 29 36 30 5 0 -1 -11 -13
-24z m-275 -64 c10 -7 -1 -3 -24 10 -24 12 -49 32 -55 43 -8 15 -1 12 25 -10
19 -16 43 -36 54 -43z m57 -9 c-7 -2 -19 -2 -25 0 -7 3 -2 5 12 5 14 0 19 -2
13 -5z"/>
<path d="M1990 780 c-12 -7 -12 -12 -2 -22 9 -9 15 -9 24 0 16 16 -2 34 -22
22z"/>
<path d="M3425 761 c-8 -15 3 -31 21 -31 9 0 14 7 12 17 -4 20 -24 28 -33 14z"/>
<path d="M2520 755 c0 -8 5 -15 10 -15 6 0 10 7 10 15 0 8 -4 15 -10 15 -5 0
-10 -7 -10 -15z"/>
</g>
</svg>
