<?xml version="1.0" encoding="utf-8"?>
<!-- Generator: Adobe Illustrator 15.1.0, SVG Export Plug-In . SVG Version: 6.00 Build 0)  -->
<!DOCTYPE svg PUBLIC "-//W3C//DTD SVG 1.1//EN" "http://www.w3.org/Graphics/SVG/1.1/DTD/svg11.dtd">
<svg version="1.1" id="Layer_1" xmlns="http://www.w3.org/2000/svg" xmlns:xlink="http://www.w3.org/1999/xlink" x="0px" y="0px"
	 width="469.915px" height="351.339px" viewBox="0 0 469.915 351.339" enable-background="new 0 0 469.915 351.339"
	 xml:space="preserve">
<g>
	<g>
		<g>
			<path fill="#FFFFFF" d="M190.552,120.396c0,47.394,56.654,85.943,126.27,85.943c69.633,0,126.283-38.549,126.283-85.943
				c0-47.382-56.65-85.953-126.283-85.953C247.206,34.444,190.552,73.015,190.552,120.396z M196.101,120.396
				c0-44.342,54.153-80.408,120.721-80.408c66.577,0,120.745,36.066,120.745,80.408c0,44.33-54.168,80.401-120.745,80.401
				C250.254,200.798,196.101,164.727,196.101,120.396z"/>
		</g>
		<g>
			<path fill="#FFFFFF" d="M327.899,2.494c-16.058,23.382-24.123,50.222-31.941,76.167l-6.286,20.269l-4.48,13.03
				c-0.222,0.638-0.44,1.268-0.663,1.888c-1.761-10.387-4.225-21.85-7.486-34.433l-0.148-0.608l-2.902,0.249
				c-1.491,17.533-8.909,32.388-17.258,46.446c-2.882,0.39-5.733,0.78-8.614,1.14c-6.279-20.622-32.798-69.807-60.308-80.081
				l-1.035,2.775c26.405,9.851,51.982,57.245,58.357,77.667c-22.97,2.802-45.873,4.509-66.609,4.501l-0.133,2.938
				c20.979,1.941,43.281,4.408,68.259,7.557c-4.856,7.973-9.558,16.178-12.991,24.74c-3.638,9.061-5.03,17.465-5.03,24.979
				c0,10.75,2.838,19.693,5.945,26.297c5.098,10.808,12.355,18.074,16.617,19.416l0.597,0.193l0.559-0.315
				c6.183-3.446,8.379-14.666,8.379-28.759c0-21.046-4.881-48.425-8.66-65.854c7.537,0.966,15.249,1.979,23.328,3.073
				c-0.807,4.721-1.309,9.508-1.309,14.458c0,5.323,0.541,10.821,1.782,16.619l0.508,2.467l1.912-1.679
				c5.984-5.267,9.062-15.497,9.306-30.178c1.313,0.177,2.578,0.349,3.905,0.537c1.194,0.161,2.451,0.347,3.658,0.504
				c-0.522,5.613-0.885,11.111-0.885,16.363c0,17.17,3.114,32.081,11.258,42.292c8.592,10.753,22.202,15.645,40.442,14.544
				l1.164-0.084l0.191-1.139c0.4-2.127,0.586-4.3,0.586-6.444c0-10.519-4.238-21.113-8.341-31.421
				c-2.023-5.043-4.104-10.282-5.574-15.28l-3.449-11.452c-0.223-0.725-0.426-1.464-0.673-2.189
				c19.338,3.061,39.395,6.614,58.715,10.855c0.009,0,2.599,0.561,2.599,0.561c7.543,1.666,12.107,2.664,21.793,3.35l2.999,0.21
				l-1.658-2.508c-6.746-10.176-22.604-17.898-37.937-25.386c-7.803-3.797-15.853-7.728-22.6-11.923l-2.508-1.546
				c-5.961-3.674-12.849-7.938-18.821-12.885c11.039-2.634,21.244-5.365,30.213-8.099c41.411-12.601,100.567-47.34,107.244-58.29
				l-2.516-1.532c-5.866,9.593-62.274,43.805-105.594,56.99c-9.463,2.879-20.345,5.76-32.099,8.529
				c-6.867-6.278-11.97-13.616-11.97-22.21c0-0.139,0.024-0.272,0.024-0.419l-2.969-0.063c0,0.009,0,0.038,0,0.038
				c-0.028,1.087-0.04,2.165-0.04,3.245c0,7.419,0.816,14.855,2.117,22.303c-4.565,0.992-9.224,1.96-13.982,2.893
				c4.672-22.767,11.383-45.843,17-65.067c6.281-21.447,11.078-37.83,11.078-46.23c0-1.442-0.147-2.646-0.438-3.601l-0.91-2.9
				L327.899,2.494z M275.878,86.974c2.924,12.021,5.134,22.993,6.582,32.852c-0.213,0.619-0.401,1.205-0.619,1.815
				c-7.047,1.203-14.175,2.323-21.359,3.342C267.299,113.322,273.314,101.015,275.878,86.974z M287.982,112.94l4.497-13.101
				l6.303-20.327c7.343-24.345,14.992-49.442,29.143-71.551c-0.485,8.391-5.335,25.059-10.877,43.941
				c-5.749,19.626-12.594,43.24-17.296,66.519c-4.634,0.894-9.35,1.745-14.111,2.579c-0.05-0.305-0.085-0.613-0.139-0.933
				C286.316,117.716,287.125,115.35,287.982,112.94z M318.229,102.631c2,3.685,4.793,7.071,8.016,10.195
				c-2.138,0.496-4.282,0.99-6.475,1.461C319.083,110.389,318.575,106.504,318.229,102.631z M245.999,129.865
				c0.74,2.758,1.521,5.943,2.305,9.366c-16.463-2.082-31.791-3.879-46.312-5.414C216.259,133.074,231.115,131.692,245.999,129.865z
				 M254.797,128.745c-1.393,2.314-2.798,4.58-4.21,6.839c-0.034,0.046-0.063,0.106-0.095,0.158
				c-0.583-2.505-1.105-4.591-1.535-6.226C250.905,129.273,252.856,129.015,254.797,128.745z M237.254,216.755
				c-2.969-6.282-5.661-14.806-5.661-25.038c0-7.174,1.321-15.196,4.808-23.882c3.396-8.454,7.93-16.37,12.854-24.446
				c4.286,19.399,8.587,45.884,8.587,65.532c0,12.53-1.78,22.162-6.408,25.387C248.17,232.794,241.924,226.653,237.254,216.755z
				 M280.785,124.817c-1.974,6.079-3.68,12.019-4.869,18.032c-8.443-1.14-16.499-2.203-24.349-3.203
				c0.516-0.834,1.008-1.657,1.532-2.497c1.833-2.944,3.645-5.934,5.447-8.922C266.028,127.186,273.454,126.052,280.785,124.817z
				 M283.354,126.488c0.793,6.406,1.186,12.262,1.268,17.558c-1.925-0.253-3.859-0.535-5.763-0.785
				C279.981,137.686,281.544,132.13,283.354,126.488z M299.088,121.543c-1.57,8.165-2.759,16.187-3.588,24.016
				c-1.191-0.153-2.424-0.333-3.596-0.502c-1.469-0.199-2.84-0.382-4.293-0.594c-0.053-6.139-0.574-12.97-1.562-20.531
				C290.44,123.16,294.81,122.372,299.088,121.543z M277.042,160.275c0-4.798,0.508-9.47,1.293-14.106
				c2.08,0.289,4.206,0.589,6.297,0.877c-0.125,12.13-2.243,21.044-6.345,26.289C277.509,168.854,277.042,164.498,277.042,160.275z
				 M307.84,205.304c-7.708-9.664-10.667-23.9-10.667-40.397c0-5.111,0.36-10.508,0.867-15.993
				c9.206,1.309,18.773,2.702,28.601,4.255c0.364,1.178,0.729,2.385,1.081,3.579l3.436,11.417c1.515,5.14,3.619,10.429,5.658,15.551
				c4.003,10.034,8.118,20.357,8.118,30.355c0,1.575-0.186,3.132-0.4,4.705C327.956,219.532,315.594,215.035,307.84,205.304z
				 M317.397,117.822c2.049,10.806,5.104,21.578,8.297,32.204c-9.38-1.456-18.517-2.793-27.308-4.045
				c0.861-8.151,2.162-16.522,3.838-25.045C307.388,119.94,312.441,118.894,317.397,117.822z M328.876,115.243
				c6.492,5.692,14.201,10.465,20.847,14.579l2.494,1.529c6.872,4.271,15.006,8.248,22.877,12.081
				c13.6,6.625,27.541,13.477,34.724,21.802c-7.243-0.641-11.297-1.548-17.988-3.029l-2.606-0.556
				c-19.861-4.367-40.485-7.992-60.287-11.108c-3.322-11.018-6.523-22.177-8.652-33.351
				C323.197,116.549,326.054,115.909,328.876,115.243z"/>
		</g>
		<path fill="#FFFFFF" d="M114.063,349.505h-5.656v-50.764c0-14.065-10.241-24.159-24.307-24.159
			c-13.91,0-24.157,10.094-24.157,24.159v50.764h-5.656v-50.764c0-14.065-10.258-24.159-24.321-24.159
			c-13.913,0-24.154,10.094-24.154,24.159v50.764H0v-50.764c0-17.279,12.703-29.977,29.968-29.977
			c12.848,0,22.778,6.886,27.071,17.427c4.43-10.541,14.352-17.427,27.062-17.427c17.418,0,29.962,12.697,29.962,29.977V349.505z"/>
		<path fill="#FFFFFF" d="M141.893,257.469h-5.657v-14.082h5.657V257.469z M141.893,349.505h-5.657v-78.748h5.657V349.505z"/>
		<path fill="#FFFFFF" d="M189.747,344.304v5.201c-16.966,1.535-26.754-9.64-26.754-27.229v-86.527h5.656v86.527
			C168.649,335.732,174.763,344.903,189.747,344.304z"/>
		<path fill="#FFFFFF" d="M271.557,349.505h-5.663v-18.957c-6.416,12.379-18.964,20.791-33.642,20.791
			c-21.717,0-39.293-18.348-39.293-40.988c0-22.924,17.576-41.586,39.293-41.586c21.72,0,39.305,18.662,39.305,41.586V349.505z
			 M232.252,274.582c-18.504,0-33.635,16.05-33.635,35.769c0,19.449,15.131,35.32,33.635,35.32c18.512,0,33.642-15.871,33.642-35.32
			C265.894,290.632,250.764,274.582,232.252,274.582z"/>
		<path fill="#FFFFFF" d="M355.784,301.946v47.559h-5.66v-47.559c0-15.905-11.449-27.364-27.353-27.364
			c-15.896,0-27.519,11.459-27.519,27.364v47.559h-5.66v-47.559c0-19.264,13.913-33.182,33.179-33.182
			C341.88,268.765,355.784,282.683,355.784,301.946z"/>
		<path fill="#FFFFFF" d="M449.066,310.351c0,22.641-17.744,40.988-39.455,40.988c-21.551,0-39.289-18.348-39.289-40.988
			c0-22.924,17.738-41.586,39.289-41.586C431.322,268.765,449.066,287.427,449.066,310.351z M443.261,310.351
			c0-20.021-14.995-36.234-33.649-36.234c-18.498,0-33.633,16.213-33.633,36.234c0,19.585,15.135,35.635,33.633,35.635
			C428.266,345.985,443.261,329.936,443.261,310.351z"/>
	</g>
</g>
</svg>
